<svg width="436" height="428" viewBox="0 0 436 428" fill="none" xmlns="http://www.w3.org/2000/svg">
<g clip-path="url(#clip0_67_2)">
<path d="M255.66 159.91C255.56 161.71 255.51 162.61 255.41 164.41C239.58 166.9 223.79 169.58 207.98 172.18C201.09 173.31 198.16 173.89 198.16 173.89C198.62 172.95 198.85 172.48 199.31 171.54C204.26 160.51 204.36 139.13 204.36 126.39C204.36 114.56 204.26 93.96 199.31 84.92C198.85 84.13 198.62 83.73 198.16 82.94C198.16 82.94 200.96 82.63 207.85 81.51C223.28 78.97 238.69 76.36 254.13 73.92C254.13 73.92 254 76.36 254 81.96C254 88.07 254.26 90.84 254.26 91.09C254.13 90.98 253.35 89.9 249.8 88.35C246.78 87.04 241.77 86.84 235.77 87.83C229.8 88.82 226.82 89.32 220.85 90.31V119.1C225.59 118.31 227.96 117.91 232.71 117.12C238.7 116.13 243.68 114.67 246.74 112.4C250.04 109.96 251.08 108.65 251.33 108.36C251.33 108.49 250.95 112.11 250.95 119.76C250.95 127.41 251.33 130.65 251.33 130.91C251.2 130.8 250.29 129.74 246.74 128.2C243.72 126.89 238.71 127.08 232.71 128.08C227.97 128.87 225.6 129.27 220.85 130.06V158.97C226.31 158.06 229.04 157.6 234.49 156.7C244.77 155.49 251.95 151.43 257.06 142.5C257.06 142.5 256.42 147.57 255.66 159.91ZM328.21 152.36C328.11 154.15 328.06 155.04 327.95 156.83C312.05 157.49 296.31 158.91 280.52 160.83C273.63 161.71 270.7 162.27 270.7 162.27C271.16 161.34 271.39 160.87 271.85 159.94C276.91 150.01 276.91 142.54 276.91 115.93C276.91 89.32 276.21 81.38 271.85 73.32C271.39 72.52 271.16 72.12 270.7 71.31C270.7 71.31 273.51 71.02 280.39 70.14C295.8 68.27 311.16 66.88 326.67 66.16C326.67 66.16 326.54 68.58 326.54 74.19C326.54 80.3 326.79 83.1 326.79 83.35C326.66 83.23 325.88 82.04 322.33 80.09C319.31 78.44 314.3 77.7 308.3 78.17C302.33 78.64 299.35 78.92 293.38 79.56V108.35C298.12 107.84 300.49 107.61 305.24 107.21C311.23 106.7 316.21 105.75 319.27 103.81C322.57 101.72 323.6 100.54 323.86 100.28C323.86 100.41 323.48 103.99 323.48 111.63C323.48 119.27 323.86 122.57 323.86 122.82C323.73 122.7 322.83 121.53 319.27 119.6C316.25 117.97 311.24 117.65 305.24 118.16C300.5 118.56 298.13 118.79 293.38 119.3V148.21C298.84 147.63 301.57 147.36 307.02 146.92C316.64 146.62 324.76 143.75 329.59 135.1C329.59 135.1 328.95 140.09 328.19 152.34L328.21 152.36ZM360.97 83.08C361.1 83.47 362.25 88 364.41 92.5C375.57 115.72 386.5 139.04 397.18 162.49C397.18 162.49 398.44 162.64 400.61 163.03C400.61 163.03 400.3 139.98 400.23 134.54C389.79 111.23 380.93 90.37 370.01 67.27C370.01 67.27 365.8 67.01 357.26 66.54C347.19 65.99 343.11 65.83 343.11 65.83C343.57 66.7 343.8 67.14 344.26 68.01C349.17 77.53 348.72 92.36 348.72 112.05C348.72 131.74 349.32 144.49 344.26 154.63C343.8 155.49 343.57 155.92 343.11 156.78C343.11 156.78 346.3 156.47 354.2 156.83C361.85 157.17 365.29 157.79 365.29 157.79C364.83 156.89 364.6 156.43 364.14 155.53C360.71 148.54 360.95 132.46 360.95 117.98V83.08H360.97ZM412.86 67.19L403.35 60.67C403.81 61.64 405.28 70.9 405.28 83.95C405.28 97 405.97 164.15 405.97 164.15C407.12 164.42 408.36 164.72 409.67 165.07C416.43 166.86 419.62 168.32 419.62 168.32C419.62 153.33 420.57 86.03 420.57 79.06C420.57 72.09 421.6 64.65 422.05 63.94L412.86 67.2V67.19ZM24.8898 131.93C24.1198 171.26 44.6998 191.98 72.8298 196.23C81.1298 197.48 90.2398 196.99 98.3298 194.05V193.16C98.3298 190.15 98.1998 185.9 98.0798 182.39C91.9298 183.31 80.4398 184.46 73.0898 183.38C52.3398 180.57 43.8398 159.26 44.5298 137.58C45.2498 114.83 53.8398 103.31 69.5698 101.76C85.2998 100.21 98.3398 110.1 103.6 120.01L104.48 109.53L113.3 106.25C106.39 91.23 26.5298 62.73 24.8898 131.94V131.93ZM97.9098 176.68C97.6798 167.18 97.9998 158.41 101.52 151.03C101.98 150.03 102.21 149.54 102.67 148.54C102.67 148.54 98.9698 148.9 89.4098 148.21C80.2298 147.54 76.1498 146.59 76.1498 146.59C76.6598 147.66 76.9098 148.2 77.4198 149.27C81.2898 157.63 80.8698 168.42 80.6698 178.1C84.7198 178.1 93.5098 177.74 97.9098 176.67V176.68ZM431.52 191.93C421.88 180.84 395.39 173.66 358.83 172.23C289.94 170.27 222.31 189.1 218.33 190.14C220.45 191.55 223.78 193.47 225.78 194.47C265.6 182.86 408.36 168.39 420.19 199.91C421.51 203.43 418.15 207.24 415.7 209.23C408.85 214.8 399.12 216.86 390.65 218.29C373.74 221.15 356.31 220.99 339.21 220.55C319.95 220.06 300.71 218.42 281.64 215.66C267.13 213.55 252.6 209.83 238.84 204.67C194.12 188.26 176.97 156.31 170.31 148.03C166.67 143.5 161.33 136.83 154.98 136.58H154.94C169.78 134.98 181.14 123.45 181.59 108.63C182.23 87.76 158.81 88.56 144.23 89.85C139.91 90.23 131.22 91.06 127.27 91.25C121.02 91.55 116.56 91.37 116.56 91.37C117.02 92.23 117.25 92.65 117.71 93.51C124.19 104.99 122.64 136.09 122.64 136.09C122.64 136.09 124.15 182.86 117.71 194.68C117.25 195.56 117.02 196 116.56 196.87C116.56 196.87 120.64 196.61 129.82 196.11C139 195.61 143.13 192.43 143.13 192.43C142.67 191.6 142.44 191.19 141.98 190.36C136.02 180.33 138.64 152.48 138.61 141.63C138.61 141.63 139.53 141.4 140.65 141.35C148.56 140.95 154.53 148.47 158.99 153.96C172.78 170.95 187.69 187.57 206.15 199.62C236.44 219.39 273.06 226.17 308.45 229.86C326.18 231.7 343.98 232.42 361.8 232.39C377.16 232.37 393.64 230.72 408.58 226.88C417.88 224.49 429.57 220.46 434.05 211.12C434.26 210.68 434.45 210.23 434.63 209.77C437.22 203.56 436.12 197.22 431.51 191.93H431.52ZM144.87 131.19C140.53 131.57 138.62 131.57 138.62 131.57V100.49C138.62 100.49 140.82 100.11 144.1 99.8C153.92 98.86 162.64 101.9 162.46 113.45C162.35 120.2 159.19 127.63 152.13 129.87C149.96 130.47 146.77 131.03 144.86 131.19H144.87ZM193.84 197.4C190.95 198.17 132.45 222.96 86.9898 220.7C41.5298 218.45 19.1798 193.56 13.0798 182.85L7.87977 190.21L0.00976562 191.21C7.15977 203.74 32.8998 230.27 82.4898 230.27C132.08 230.27 195.41 205 202.5 203.11C198.02 200.77 195.77 198.92 193.85 197.39L193.84 197.4ZM168.69 299.73C164.42 299.73 160.72 299.17 160.72 299.17C160.72 321.6 161.28 323.73 163.75 328.1L164.87 330.12C164.87 330.12 161.39 329.9 152.75 329.9C144.11 329.9 140.85 330.12 140.85 330.12L141.86 328.21C144.11 324.06 144.67 323.16 144.67 289.52C144.67 255.88 144.22 256.44 141.86 251.95L140.85 250.04C140.85 250.04 144.44 250.26 150.28 250.26C155.11 250.26 162.85 249.92 166.33 249.92C178.34 249.92 199.56 250.71 199.56 273.92C199.56 297.13 182.05 299.71 168.69 299.71V299.73ZM166 258.91C162.97 258.91 160.72 259.02 160.72 259.02V290.53C160.72 290.53 161.95 290.87 166.67 290.87C181.71 290.87 182.39 280.33 182.39 274.16C182.39 260.48 172.96 258.91 166 258.91ZM233.47 299.73C229.2 299.73 225.5 299.17 225.5 299.17C225.5 321.6 226.06 323.73 228.53 328.1L229.65 330.12C229.65 330.12 226.17 329.9 217.53 329.9C208.89 329.9 205.63 330.12 205.63 330.12L206.64 328.21C208.89 324.06 209.45 323.16 209.45 289.52C209.45 255.88 209 256.44 206.64 251.95L205.63 250.04C205.63 250.04 209.22 250.26 215.06 250.26C219.89 250.26 227.63 249.92 231.11 249.92C243.12 249.92 264.34 250.71 264.34 273.92C264.34 297.13 246.83 299.71 233.47 299.71V299.73ZM230.78 258.91C227.75 258.91 225.5 259.02 225.5 259.02V290.53C225.5 290.53 226.74 290.87 231.45 290.87C246.49 290.87 247.17 280.33 247.17 274.16C247.17 260.48 237.74 258.91 230.78 258.91ZM319.46 326.09L319.24 330.02H281.3C275.24 330.02 272.66 330.13 272.66 330.13L273.67 328.22C275.92 323.96 276.48 323.17 276.48 289.53C276.48 255.89 276.03 256.45 273.67 251.96L272.66 250.05C272.66 250.05 276.03 250.27 284.9 250.27C293.77 250.27 296.91 250.05 296.91 250.05L295.79 251.96C293.32 256.22 292.76 258.02 292.76 286.17V320.26H300.84C314.76 320.26 316.56 317.01 320.71 310.95C320.71 310.95 320.15 315.32 319.48 326.09H319.46ZM378.62 326.09L378.39 330.02H336.63C330.57 330.02 327.99 330.13 327.99 330.13L329 328.22C331.25 323.96 331.81 323.17 331.81 289.53C331.81 255.89 331.36 256.45 329 251.96L327.99 250.05C327.99 250.05 330.46 250.16 336.52 250.16H388.51L381.94 257.41C381.94 257.41 384.18 265.83 384.18 266.05C384.07 265.94 378.09 262.13 361.1 262.13H347.97V285.15H358.41C363.69 285.15 368.06 284.59 370.76 283.02C373.68 281.34 374.58 280.33 374.8 280.1C374.8 280.21 374.46 283.35 374.46 290.08C374.46 296.81 374.8 299.73 374.8 299.95C374.69 299.84 373.9 298.83 370.76 296.92C368.07 295.35 363.69 294.79 358.41 294.79H347.97V320.25H359.98C373.9 320.25 375.7 317 379.85 310.94C379.85 310.94 379.29 315.31 378.62 326.08V326.09ZM122.68 305.59C122.68 305.59 115.34 281.44 109.88 263.01C104.43 244.58 93.7498 239.5 93.7498 239.4L91.5098 246.51L81.7498 247.53C82.6298 249.15 90.6298 254.68 95.2898 269.04C99.9598 283.4 102.59 294.06 102.59 294.06H83.8398L90.2898 271.94C88.3298 264.15 83.1298 258.81 83.1298 258.81C83.1298 258.81 82.3198 260.77 81.5898 263.02C80.8598 265.27 67.7798 305.6 67.7798 305.6C63.1798 319.79 61.1598 326.12 56.8898 329.8C56.8898 329.8 60.9298 329.6 68.1198 329.6C75.3098 329.6 79.6798 329.8 79.6798 329.8C78.2198 328.88 75.9798 327.15 75.9798 323.37C75.9798 320 77.7798 314.59 79.6798 308.05L81.2498 302.94H105.05L106.62 308.05C108.53 314.59 110.21 320 110.21 323.37C110.21 327.15 108.08 328.88 106.62 329.8C106.62 329.8 112.46 329.6 119.87 329.6C127.95 329.6 133.12 329.8 133.12 329.8C128.97 326.12 126.95 319.9 122.68 305.6V305.59ZM160.98 22.06C161.01 19.18 153.18 8.92 151.74 7.6C152.27 19.45 151.79 44.2 151.79 54.13C151.79 66.87 150.34 70.27 150.34 70.27L156.86 68.05L163.23 70.27C163.23 70.27 161.58 65.34 161.58 53.43C161.58 44.48 160.96 24.94 160.99 22.06H160.98ZM202.85 27.09C202.85 4.64 203.22 4.04 204.72 1.27L205.39 0C205.39 0 202.54 0.15 196.93 0.15C191.32 0.15 188.69 0 188.69 0L178.8 22.82C177.9 24.92 177.75 25.66 177.75 25.66C177.75 25.66 177.6 24.76 176.7 22.82L166.9 0C166.9 0 164.43 0.15 159.11 0.15C155.13 0.15 152.48 0.08 151.21 0.03C151.27 0.08 151.33 0.11 151.39 0.17C151.39 0.17 157.56 4.18 163.53 16.31L176.41 46.39L189.52 16.16C191.17 12.49 192.07 9.05 192.22 8.68V26.34C192.22 48.56 191.77 58.21 190.35 60.91L189.6 62.18C189.6 62.18 192.91 61.65 197.05 60.99C201.18 60.33 205.41 59.8 205.41 59.8L204.74 58.53C203.17 55.54 202.87 48.87 202.87 27.09H202.85ZM234.2 18.41C228.28 18.41 227.16 22.08 227.16 22.08V33.08C227.16 49.39 228.19 52.56 228.93 53.88C229.67 55.2 230.63 56.26 230.63 56.26C230.63 56.26 227.22 56.68 222.66 57.53C218.11 58.38 213.97 59.16 213.97 59.16L214.64 57.89C215.84 55.72 216.51 49.39 216.51 33.08V30.39C216.51 17.44 215.84 15.35 214.64 13.18L213.97 11.91L226.93 10.04L226.63 21.56C228.35 10.93 234.35 9.74 237.19 9.74C241.08 9.74 242.36 11.09 242.36 11.09C242.36 11.09 242.21 12.89 242.21 16.78C242.21 21.27 242.36 22.92 242.36 22.92C240.19 19.7 237.42 18.43 234.2 18.43V18.41ZM262.66 53.88C254.42 53.88 250.08 51.49 250.08 51.49C250.08 51.49 250.23 50.07 250.23 46.4C250.23 42.73 250.08 40.41 250.08 40.41C253.23 45.35 256.52 47.59 261.69 47.59C267.16 47.59 268.73 45.2 268.73 42.58C268.73 39.96 267.31 38.61 264.69 37.19L258.55 33.82C254.43 31.72 250.24 28.88 250.24 21.92C250.24 13.84 255.86 9.8 265.22 9.8C273.61 9.8 277.2 12.12 277.2 12.12C277.2 12.12 277.05 13.62 277.05 17.43C277.05 21.02 277.2 23.12 277.2 23.12C274.35 18.85 271.51 15.94 266.26 15.94C263.26 15.94 259.82 16.54 259.82 20.43C259.82 23.2 261.54 24.4 265.06 26.19L270.23 28.88C275.32 31.57 278.62 34.72 278.62 40.93C278.62 47.74 274.35 53.88 262.67 53.88H262.66ZM291.89 52.86C287.71 52.31 285.52 50.19 285.52 46.7C285.52 43.21 288.12 40.89 291.82 40.48C296 41.03 298.19 43.08 298.19 46.64C298.19 50.2 295.59 52.45 291.89 52.86Z" fill="#006A42"/>
<path d="M145.84 349.15H143.16V358.15H144.71V354.71H145.85C147.85 354.71 149.05 353.67 149.05 351.93C149.05 350.19 147.85 349.15 145.84 349.15ZM144.72 350.59H145.83C146.89 350.59 147.5 351.08 147.5 351.93C147.5 352.78 146.9 353.27 145.85 353.27H144.73V350.6L144.72 350.59Z" fill="#006A42"/>
<path d="M155.26 348.99C152.65 348.99 150.61 351.08 150.61 353.75C150.61 356.19 152.76 358.32 155.22 358.32C157.93 358.32 159.97 356.29 159.97 353.59C159.97 351.05 157.85 348.98 155.25 348.98L155.26 348.99ZM155.3 356.88C153.34 356.88 152.17 355.22 152.17 353.62C152.17 352.3 153.16 350.43 155.36 350.43C157.05 350.43 158.43 351.89 158.43 353.68C158.43 355.25 157.26 356.88 155.3 356.88Z" fill="#006A42"/>
<path d="M164.54 349.15H161.86V358.15H163.41V354.71H164.55C166.55 354.71 167.75 353.67 167.75 351.93C167.75 350.19 166.55 349.15 164.54 349.15ZM163.42 350.59H164.53C165.59 350.59 166.2 351.08 166.2 351.93C166.2 352.78 165.6 353.27 164.55 353.27H163.43V350.6L163.42 350.59Z" fill="#006A42"/>
<path d="M173.62 352.85H170.04V354.35H173.62V352.85Z" fill="#006A42"/>
<path d="M180.91 355.16C180.91 356.2 180.32 356.87 179.4 356.87C178.48 356.87 177.89 356.2 177.89 355.16V349.15H176.34V355.25C176.34 357.05 177.6 358.31 179.41 358.31C181.22 358.31 182.48 357.05 182.48 355.25V349.15H180.93V355.16H180.91Z" fill="#006A42"/>
<path d="M187.21 349.15H184.53V358.15H186.08V354.71H187.22C189.22 354.71 190.42 353.67 190.42 351.93C190.42 350.19 189.22 349.15 187.21 349.15ZM186.09 350.59H187.2C188.26 350.59 188.87 351.08 188.87 351.93C188.87 352.78 188.27 353.27 187.22 353.27H186.1V350.6L186.09 350.59Z" fill="#006A42"/>
<path d="M198.19 352.59C197.36 352.33 197.02 352 197.02 351.48C197.02 350.93 197.51 350.43 198.05 350.43C198.72 350.43 199.14 350.86 199.14 351.55V351.69H200.69V351.55C200.66 350.02 199.6 348.98 198.05 348.98C196.63 348.98 195.47 350.11 195.47 351.5C195.47 352.89 196.13 353.61 198.2 354.31C199.13 354.63 199.32 355.01 199.32 355.53C199.32 356.33 198.81 356.87 198.05 356.87C197.29 356.87 196.78 356.3 196.77 355.43V355.29H195.22V355.43C195.25 357.13 196.41 358.32 198.05 358.32C199.69 358.32 200.87 357.18 200.87 355.54C200.87 353.99 200.17 353.22 198.19 352.59Z" fill="#006A42"/>
<path d="M202.16 350.6H203.84V358.15H205.39V350.6H207.07V349.15H202.16V350.6Z" fill="#006A42"/>
<path d="M212.69 348.99C210.08 348.99 208.04 351.08 208.04 353.75C208.04 356.19 210.19 358.32 212.65 358.32C215.36 358.32 217.4 356.29 217.4 353.59C217.4 351.05 215.28 348.98 212.68 348.98L212.69 348.99ZM212.73 356.88C210.77 356.88 209.6 355.22 209.6 353.62C209.6 352.3 210.59 350.43 212.79 350.43C214.48 350.43 215.86 351.89 215.86 353.68C215.86 355.25 214.69 356.88 212.73 356.88Z" fill="#006A42"/>
<path d="M225.63 352.19C225.63 350.2 224.53 349.15 222.46 349.15H219.52V358.15H221.07V354.37L223.76 358.15H225.7L223.24 354.87C224.46 354.72 225.62 353.8 225.62 352.18L225.63 352.19ZM221.07 350.6H222.28C223.37 350.6 224.08 351.18 224.08 352.09C224.08 353.39 222.88 353.66 221.87 353.66H221.08V350.6H221.07Z" fill="#006A42"/>
<path d="M227.47 358.15H232.46V356.71H229.02V354.33H232.46V352.89H229.02V350.6H232.46V349.15H227.47V358.15Z" fill="#006A42"/>
<path d="M242.2 354.5C243.15 353.53 243.47 352.88 243.47 351.94C243.47 350.28 242.2 348.98 240.58 348.98C239.14 348.98 237.69 350.06 237.69 352.13V352.42H239.2V352.12C239.2 351.07 239.75 350.38 240.61 350.38C241.39 350.38 241.97 351.04 241.97 351.9C241.97 352.14 241.97 352.63 241.28 353.34L237.79 356.89L237.75 356.93V358.15H243.49V356.75H240.02L242.21 354.5H242.2Z" fill="#006A42"/>
<path d="M248.19 348.97C246.74 348.97 245.19 350.04 245.19 352.02V355.26C245.19 357.24 246.71 358.31 248.14 358.31C249.57 358.31 251.12 357.28 251.12 355.38V351.94C251.12 350.28 249.83 348.97 248.18 348.97H248.19ZM246.7 351.94C246.7 351.16 247.15 350.37 248.17 350.37C249.24 350.37 249.62 351.22 249.62 351.94V355.44C249.62 356.36 248.88 356.92 248.17 356.92C247.09 356.92 246.7 356 246.7 355.21V351.94Z" fill="#006A42"/>
<path d="M257.42 354.5C258.37 353.53 258.69 352.88 258.69 351.94C258.69 350.28 257.42 348.98 255.8 348.98C254.36 348.98 252.91 350.06 252.91 352.13V352.42H254.42V352.12C254.42 351.07 254.97 350.38 255.83 350.38C256.61 350.38 257.19 351.04 257.19 351.9C257.19 352.14 257.19 352.63 256.5 353.34L253.01 356.89L252.97 356.93V358.15H258.71V356.75H255.24L257.43 354.5H257.42Z" fill="#006A42"/>
<path d="M264.82 353.22C265.35 352.7 265.54 352.24 265.54 351.54C265.54 350.06 264.49 348.98 263.05 348.98C262.24 348.98 261.44 349.36 260.98 349.97C260.6 350.46 260.47 351.14 260.47 351.47V351.61H261.96V351.49C262.05 350.79 262.42 350.39 263 350.39C263.58 350.39 264.03 350.86 264.03 351.45C264.03 352.24 263.43 352.53 262.87 352.53H262.33V354.03H262.87C263.93 354.03 264.41 354.77 264.41 355.46C264.41 356.25 263.76 356.92 262.98 356.92C262.13 356.92 261.54 356.34 261.49 355.44V355.31H259.98V355.45C260.01 357.06 261.31 358.32 262.94 358.32C264.66 358.32 265.91 357.1 265.91 355.41C265.91 354.52 265.51 353.74 264.81 353.22H264.82Z" fill="#006A42"/>
<path d="M271.5 352.85H267.92V354.35H271.5V352.85Z" fill="#006A42"/>
<path d="M278.06 354.5C279.01 353.53 279.33 352.88 279.33 351.94C279.33 350.28 278.06 348.98 276.44 348.98C275 348.98 273.55 350.06 273.55 352.13V352.42H275.06V352.12C275.06 351.07 275.61 350.38 276.47 350.38C277.25 350.38 277.83 351.04 277.83 351.9C277.83 352.14 277.83 352.63 277.14 353.34L273.65 356.89L273.61 356.93V358.15H279.35V356.75H275.88L278.07 354.5H278.06Z" fill="#006A42"/>
<path d="M284.05 348.97C282.6 348.97 281.05 350.04 281.05 352.02V355.26C281.05 357.24 282.57 358.31 284 358.31C285.43 358.31 286.98 357.28 286.98 355.38V351.94C286.98 350.28 285.69 348.97 284.04 348.97H284.05ZM282.56 351.94C282.56 351.16 283.01 350.37 284.03 350.37C285.1 350.37 285.48 351.22 285.48 351.94V355.44C285.48 356.36 284.74 356.92 284.03 356.92C282.95 356.92 282.56 356 282.56 355.21V351.94Z" fill="#006A42"/>
<path d="M293.04 354.5C293.99 353.53 294.31 352.88 294.31 351.94C294.31 350.28 293.04 348.98 291.42 348.98C289.98 348.98 288.53 350.06 288.53 352.13V352.42H290.04V352.12C290.04 351.07 290.59 350.38 291.45 350.38C292.23 350.38 292.81 351.04 292.81 351.9C292.81 352.14 292.81 352.63 292.12 353.34L288.63 356.89L288.59 356.93V358.15H294.33V356.75H290.86L293.05 354.5H293.04Z" fill="#006A42"/>
<path d="M301.22 355.39V349.15H299.78L295.75 355.38L295.73 355.41V356.78H299.72V358.15H301.22V356.78H302.14V355.38H301.22V355.39ZM297.53 355.39L299.72 351.79V355.39H297.53Z" fill="#006A42"/>
<path d="M123.77 391.18L120.69 379.13H118.48L115.36 391.26L112.29 379.13H109.18L114.03 396.47L114.09 396.65H116.66L119.57 385.42L122.49 396.65H125.06L129.88 379.45L129.97 379.13H126.91L123.77 391.18Z" fill="#006A42"/>
<path d="M137.32 383.06C133.58 383.06 130.65 386.17 130.65 390.14C130.65 393.78 133.8 396.97 137.39 396.97C140.22 396.97 142.72 395.21 143.75 392.48L143.88 392.14H140.97L140.9 392.27C140.23 393.51 138.92 394.28 137.48 394.28C135.71 394.28 134.22 393.12 133.63 391.31H144.07L144.1 391.1C144.17 390.64 144.17 390.27 144.17 389.87C144.17 386.05 141.16 383.06 137.31 383.06H137.32ZM133.58 388.97C133.9 386.97 135.76 385.75 137.39 385.75C139.31 385.75 140.96 387.14 141.25 388.97H133.58Z" fill="#006A42"/>
<path d="M150.36 379.13H147.46V396.65H150.36V379.13Z" fill="#006A42"/>
<path d="M163.37 392.08C162.74 393.48 161.5 394.28 159.99 394.28C157.77 394.28 156.1 392.44 156.1 390C156.1 387.56 157.72 385.74 160.04 385.74C161.58 385.74 162.68 386.48 163.4 387.99L163.47 388.13H166.61L166.52 387.81C165.75 385.01 163.05 383.05 159.97 383.05C156.11 383.05 153.2 386.09 153.2 390.13C153.2 393.9 156.25 396.96 159.99 396.96C162.99 396.96 165.49 395.16 166.51 392.26L166.63 391.92H163.44L163.37 392.07V392.08Z" fill="#006A42"/>
<path d="M176.7 383.06C172.58 383.06 169.47 386.07 169.47 390.07C169.47 393.74 172.76 396.97 176.51 396.97C179.94 396.97 183.68 394.35 183.74 390.12C183.76 388.24 183.06 386.48 181.77 385.17C180.44 383.83 178.59 383.06 176.7 383.06ZM176.54 394.28C174.28 394.28 172.37 392.32 172.37 390C172.37 387.68 174.3 385.74 176.58 385.74C178.86 385.74 180.84 387.64 180.84 389.97C180.84 392.3 178.95 394.27 176.53 394.27L176.54 394.28Z" fill="#006A42"/>
<path d="M200.94 383.06C199.03 383.06 197.72 383.65 196.75 384.98C195.99 383.82 194.45 383.06 192.77 383.06C191.28 383.06 190.3 383.44 189.32 384.44V383.41H186.61V396.66H189.51V389.25C189.51 386.86 190.43 385.75 192.41 385.75C194.17 385.75 195.06 386.84 195.06 388.99V396.65H197.96V389.22C197.96 386.79 198.79 385.75 200.75 385.75C202.58 385.75 203.51 386.93 203.51 389.27V396.65H206.41V388.67C206.41 385.16 204.37 383.06 200.96 383.06H200.94Z" fill="#006A42"/>
<path d="M215.9 383.06C212.16 383.06 209.23 386.17 209.23 390.14C209.23 393.78 212.38 396.97 215.97 396.97C218.81 396.97 221.3 395.21 222.33 392.48L222.46 392.14H219.55L219.48 392.27C218.81 393.51 217.5 394.28 216.06 394.28C214.29 394.28 212.8 393.12 212.21 391.31H222.66L222.69 391.1C222.76 390.64 222.76 390.27 222.76 389.87C222.76 386.05 219.75 383.06 215.9 383.06ZM212.16 388.97C212.48 386.97 214.34 385.75 215.97 385.75C217.89 385.75 219.54 387.14 219.83 388.97H212.16Z" fill="#006A42"/>
<path d="M237.39 379.13H234.49V383.4H232.76V386.09H234.49V396.65H237.39V386.09H239.48V383.4H237.39V379.13Z" fill="#006A42"/>
<path d="M248.07 383.06C243.95 383.06 240.84 386.07 240.84 390.07C240.84 393.74 244.13 396.97 247.88 396.97C251.31 396.97 255.05 394.35 255.11 390.12C255.13 388.24 254.43 386.48 253.14 385.17C251.81 383.83 249.96 383.06 248.07 383.06ZM247.91 394.28C245.65 394.28 243.74 392.32 243.74 390C243.74 387.68 245.67 385.74 247.95 385.74C250.23 385.74 252.21 387.64 252.21 389.97C252.21 392.3 250.32 394.27 247.9 394.27L247.91 394.28Z" fill="#006A42"/>
<path d="M274.69 391.73L269.81 379.29L269.75 379.13H265.41V396.65H268.4V383.22L273.71 396.49L273.78 396.65H275.62L280.99 383.16V396.65H283.98V379.13H279.65L274.69 391.73Z" fill="#006A42"/>
<path d="M294.19 390.46H302.01C300.93 392.87 298.97 394.19 296.45 394.19C293.19 394.19 290.44 391.27 290.44 387.82C290.44 384.56 293.26 381.59 296.36 381.59C298.21 381.59 299.59 382.26 300.96 383.83L301.04 383.92H304.49L304.28 383.54C302.56 380.49 299.71 378.81 296.26 378.81C291.94 378.81 287.47 382.29 287.47 388.12C287.47 392.84 291.58 396.97 296.26 396.97C300.94 396.97 305.32 393.87 305.49 387.94V387.68H294.21V390.46H294.19Z" fill="#006A42"/>
<path d="M316.05 379.13H313.47L306.81 396.65H309.97L311.86 391.64H317.64L319.53 396.65H322.72L316.12 379.29L316.06 379.13H316.05ZM316.61 388.86H312.91L314.77 383.33L316.61 388.86Z" fill="#006A42"/>
<path d="M322.07 382.44H322.91C322.87 383.19 322.62 383.32 322.24 383.44L322.07 383.5V385.44L322.37 385.38C324.07 385.05 324.97 383.87 324.97 381.98V379.13H322.07V382.44Z" fill="#006A42"/>
<path d="M332.57 388.41L332.5 388.39C331.18 387.98 330.37 387.69 330.37 386.86C330.37 386.21 330.88 385.76 331.61 385.76C332.62 385.76 332.92 386.48 332.99 387.08L333.02 387.3H335.9V387.04C335.82 384.74 334.07 383.07 331.73 383.07C329.64 383.07 327.47 384.57 327.47 387.07C327.47 388.47 327.93 390.04 331.3 391.1C333.05 391.67 333.29 392.27 333.29 392.79C333.29 393.7 332.67 394.29 331.7 394.29C330.53 394.29 329.89 393.59 329.79 392.2L329.77 391.97H326.89V392.22C326.89 395.34 329.29 396.98 331.65 396.98C334.32 396.98 336.18 395.2 336.18 392.66C336.18 390.59 334.96 389.16 332.55 388.42L332.57 388.41Z" fill="#006A42"/>
<path d="M154.21 413.56H147.69V406.22H144.7V423.75H147.69V416.34H154.21V423.75H157.2V406.22H154.21V413.56Z" fill="#006A42"/>
<path d="M167.43 410.16C163.31 410.16 160.2 413.17 160.2 417.17C160.2 420.84 163.49 424.07 167.24 424.07C170.67 424.07 174.41 421.45 174.47 417.22C174.49 415.34 173.79 413.58 172.5 412.27C171.17 410.93 169.32 410.16 167.43 410.16ZM167.27 421.38C165.01 421.38 163.1 419.42 163.1 417.1C163.1 414.78 165.03 412.84 167.31 412.84C169.59 412.84 171.57 414.74 171.57 417.07C171.57 419.4 169.68 421.37 167.26 421.37L167.27 421.38Z" fill="#006A42"/>
<path d="M191.67 410.16C189.76 410.16 188.45 410.75 187.48 412.07C186.72 410.91 185.17 410.16 183.5 410.16C182.02 410.16 181.03 410.54 180.05 411.54V410.51H177.34V423.75H180.24V416.35C180.24 413.96 181.16 412.85 183.14 412.85C184.9 412.85 185.79 413.94 185.79 416.09V423.75H188.69V416.32C188.69 413.89 189.52 412.85 191.48 412.85C193.31 412.85 194.24 414.03 194.24 416.37V423.75H197.14V415.77C197.14 412.26 195.1 410.16 191.69 410.16H191.67Z" fill="#006A42"/>
<path d="M206.63 410.16C202.89 410.16 199.96 413.27 199.96 417.24C199.96 420.88 203.11 424.07 206.7 424.07C209.53 424.07 212.03 422.31 213.06 419.58L213.19 419.24H210.28L210.21 419.37C209.54 420.61 208.23 421.38 206.79 421.38C205.02 421.38 203.53 420.23 202.94 418.41H213.38L213.41 418.2C213.48 417.74 213.48 417.36 213.48 416.96C213.48 413.14 210.47 410.15 206.62 410.15L206.63 410.16ZM202.89 416.07C203.21 414.07 205.07 412.85 206.7 412.85C208.62 412.85 210.27 414.24 210.56 416.07H202.89Z" fill="#006A42"/>
<path d="M229.18 406.22H223.98V423.74H226.97V417.03H229.2C233.09 417.03 235.41 415.01 235.41 411.63C235.41 408.25 233.08 406.23 229.17 406.23L229.18 406.22ZM226.97 409H229.16C231.24 409 232.43 409.96 232.43 411.62C232.43 413.28 231.25 414.24 229.18 414.24H226.97V409Z" fill="#006A42"/>
<path d="M247.82 411.88C246.81 410.75 245.37 410.16 243.61 410.16C239.66 410.16 236.68 413.24 236.68 417.33C236.68 421.11 239.76 424.07 243.7 424.07C245.4 424.07 246.87 423.42 247.82 422.25V423.75H250.72V410.51H247.82V411.88ZM247.87 417.15C247.87 419.48 245.99 421.38 243.68 421.38C241.37 421.38 239.58 419.44 239.58 417.15C239.58 414.86 241.42 412.85 243.68 412.85C246.07 412.85 247.87 414.7 247.87 417.15Z" fill="#006A42"/>
<path d="M256.96 411.27V410.51H254.22V423.75H257.12V416.35C257.12 414.31 258.12 413.19 260.01 413.13H260.25V410.15H259.98C258.64 410.24 257.64 410.6 256.95 411.27H256.96Z" fill="#006A42"/>
<path d="M267.53 406.22H264.63V410.5H262.91V413.19H264.63V423.75H267.53V413.19H269.63V410.5H267.53V406.22Z" fill="#006A42"/>
<path d="M278.77 419.94L275.19 410.5H272.06L277.25 423.24L275.28 428H278.31L285.57 410.5H282.44L278.77 419.94Z" fill="#006A42"/>
<path d="M293.64 420.44H290.74V423.75H293.64V420.44Z" fill="#006A42"/>
<path d="M293.64 406.22H290.74V419.56H293.64V406.22Z" fill="#006A42"/>
<path d="M300.48 406.22H297.58V419.56H300.48V406.22Z" fill="#006A42"/>
<path d="M300.48 420.44H297.58V423.75H300.48V420.44Z" fill="#006A42"/>
</g>
<defs>
<clipPath id="clip0_67_2">
<rect width="436" height="428" fill="white"/>
</clipPath>
</defs>
</svg>
